<?xml version="1.0" standalone="no"?>
<!DOCTYPE svg PUBLIC "-//W3C//DTD SVG 20010904//EN"
 "http://www.w3.org/TR/2001/REC-SVG-20010904/DTD/svg10.dtd">
<svg version="1.0" xmlns="http://www.w3.org/2000/svg"
 width="156.000000pt" height="148.000000pt" viewBox="0 0 156.000000 148.000000"
 preserveAspectRatio="xMidYMid meet">
<metadata>
Created by potrace 1.10, written by Peter Selinger 2001-2011
</metadata>
<g transform="translate(0.000000,148.000000) scale(0.100000,-0.100000)"
fill="#000000" stroke="none">
<path d="M768 1453 c17 -2 47 -2 65 0 17 2 3 4 -33 4 -36 0 -50 -2 -32 -4z"/>
<path d="M557 1415 c-98 -37 -184 -92 -263 -170 -67 -66 -89 -98 -132 -183
-29 -57 -52 -111 -52 -120 0 -10 15 18 34 61 49 112 88 168 175 250 79 74 159
123 254 157 28 10 45 19 37 19 -8 0 -32 -7 -53 -14z"/>
<path d="M1059 1397 c106 -45 174 -92 255 -177 76 -81 132 -176 164 -280 13
-44 20 -59 16 -35 -16 108 -92 243 -196 347 -62 61 -96 86 -170 122 -51 25
-106 48 -123 52 -16 3 8 -10 54 -29z"/>
<path d="M700 1374 c-74 -15 -188 -61 -253 -103 -277 -181 -367 -552 -203
-844 76 -136 203 -240 359 -294 71 -24 97 -28 197 -28 100 0 126 4 197 28 198
68 340 210 410 409 22 63 26 90 26 193 1 104 -3 131 -26 201 -47 141 -134 256
-254 335 -104 68 -204 100 -328 104 -55 2 -111 1 -125 -1z m232 -49 c136 -31
235 -90 318 -187 69 -82 67 -88 -24 -88 -97 0 -119 -18 -155 -121 -14 -41 -30
-73 -35 -72 -5 1 -22 37 -37 80 -37 105 -49 113 -161 113 -86 0 -91 -1 -119
-29 -16 -16 -29 -39 -29 -52 0 -19 -4 -18 -43 18 -54 50 -104 68 -187 66 -73
-1 -124 -18 -181 -64 -21 -17 -39 -27 -39 -23 0 4 14 32 31 63 105 186 300
306 506 310 51 1 116 -5 155 -14z m-385 -320 c34 -10 61 -27 81 -49 29 -33 50
-91 38 -103 -3 -3 -30 -5 -60 -5 -47 0 -58 3 -78 26 -37 44 -128 37 -128 -9 0
-31 28 -49 100 -65 64 -15 118 -40 142 -66 48 -54 46 -142 -4 -199 -73 -84
-266 -85 -345 -3 -26 27 -53 88 -53 121 0 4 28 7 63 7 59 -1 63 -3 82 -32 24
-39 64 -51 114 -35 41 14 52 44 24 69 -10 8 -49 23 -88 32 -127 31 -175 74
-175 156 0 126 137 200 287 155z m431 -127 c24 -73 45 -154 49 -181 3 -26 7
-46 9 -44 2 2 8 28 14 58 5 30 27 109 47 176 l38 123 103 0 102 0 0 -265 0
-265 -65 0 -65 0 -1 188 c-1 182 -1 186 -15 132 -8 -30 -33 -115 -56 -188
l-42 -133 -59 3 -58 3 -35 105 c-19 58 -45 143 -58 190 l-23 85 5 -192 5 -193
-72 0 -71 0 0 265 0 265 103 0 103 0 42 -132z m-714 -141 c21 -27 24 -37 14
-37 -9 0 -27 -9 -40 -20 -14 -10 -28 -16 -32 -13 -8 8 -8 121 1 152 6 22 7 21
18 -11 6 -19 24 -51 39 -71z m1135 16 c1 -24 -3 -43 -9 -43 -6 0 -10 27 -9 63
1 71 17 53 18 -20z m-709 32 c0 -41 -5 -43 -37 -13 -34 32 -33 35 30 47 4 0 7
-15 7 -34z m709 -102 c0 -10 -4 -27 -9 -38 -7 -16 -9 -13 -9 18 -1 20 4 37 9
37 6 0 10 -8 9 -17z m-427 -227 c29 -20 102 -20 132 -1 13 9 29 29 36 45 13
32 30 31 30 0 0 -31 47 -60 96 -60 27 0 44 -5 44 -12 0 -15 -71 -107 -107
-138 -46 -40 -144 -95 -213 -121 -56 -20 -84 -23 -195 -24 -124 0 -134 2 -208
32 -158 66 -278 176 -332 306 l-16 39 34 -26 c60 -46 105 -59 197 -59 92 0
130 13 184 62 23 21 30 23 34 11 3 -8 18 -27 33 -42 23 -24 36 -28 82 -28 49
0 58 3 81 31 14 17 26 40 26 52 1 18 5 15 20 -15 11 -20 30 -44 42 -52z"/>
<path d="M96 888 c-4 -18 -9 -69 -11 -113 l-4 -80 8 71 c5 39 12 89 16 112 8
49 1 57 -9 10z"/>
<path d="M1501 655 c-2 -58 -31 -150 -73 -235 -34 -68 -60 -103 -133 -176 -77
-77 -106 -99 -185 -138 -52 -26 -84 -44 -70 -40 14 3 61 25 105 48 119 61 228
173 289 297 50 101 80 203 73 247 -4 27 -4 26 -6 -3z"/>
<path d="M106 565 c3 -22 28 -87 56 -144 43 -89 62 -117 132 -187 69 -69 98
-90 187 -133 57 -28 113 -51 124 -51 11 1 -3 9 -32 19 -125 45 -238 124 -320
222 -49 60 -116 188 -138 264 -14 46 -14 47 -9 10z"/>
<path d="M757 23 c18 -2 50 -2 70 0 21 2 7 4 -32 4 -38 0 -55 -2 -38 -4z"/>
</g>
</svg>
